HIERARCHY
ROOT Hips
{
	OFFSET 0.000000 0.000000 0.000000
	CHANNELS 6 Xposition Yposition Zposition Zrotation Yrotation Xrotation 
	JOINT LHipJoint
	{
		OFFSET 0.000000 0.000000 0.000000
		CHANNELS 3 Zrotation Yrotation Xrotation
		JOINT LeftUpLeg
		{
			OFFSET 1.363060 -1.794630 0.839290
			CHANNELS 3 Zrotation Yrotation Xrotation
			JOINT LeftLeg
			{
				OFFSET 2.448110 -6.726130 0.000000
				CHANNELS 3 Zrotation Yrotation Xrotation
				JOINT LeftFoot
				{
					OFFSET 2.562200 -7.039590 0.000000
					CHANNELS 3 Zrotation Yrotation Xrotation
					JOINT LeftToeBase
					{
						OFFSET 0.157640 -0.433110 2.322550
						CHANNELS 3 Zrotation Yrotation Xrotation
						End Site
						{
							OFFSET 0.000000 0.000000 0.000000
						}
					}
				}
			}
		}
	}
	JOINT RHipJoint
	{
		OFFSET 0.000000 0.000000 0.000000
		CHANNELS 3 Zrotation Yrotation Xrotation
		JOINT RightUpLeg
		{
			OFFSET -1.305520 -1.794630 0.839290
			CHANNELS 3 Zrotation Yrotation Xrotation
			JOINT RightLeg
			{
				OFFSET -2.542530 -6.985550 0.000000
				CHANNELS 3 Zrotation Yrotation Xrotation
				JOINT RightFoot
				{
					OFFSET -2.568260 -7.056230 0.000000
					CHANNELS 3 Zrotation Yrotation Xrotation
					JOINT RightToeBase
					{
						OFFSET -0.164730 -0.452590 2.363150
						CHANNELS 3 Zrotation Yrotation Xrotation
						End Site
						{
							OFFSET 0.000000 0.000000 0.000000
						}
					}
				}
			}
		}
	}
	JOINT LowerBack
	{
		OFFSET 0.000000 0.000000 0.000000
		CHANNELS 3 Zrotation Yrotation Xrotation
		JOINT Spine
		{
			OFFSET 0.028270 2.035590 -0.193380
			CHANNELS 3 Zrotation Yrotation Xrotation
			JOINT Spine1
			{
				OFFSET 0.056720 2.048850 -0.042750
				CHANNELS 3 Zrotation Yrotation Xrotation
				JOINT Neck
				{
					OFFSET 0.000000 0.000000 0.000000
					CHANNELS 3 Zrotation Yrotation Xrotation
					JOINT Neck1
					{
						OFFSET -0.054170 1.746240 0.172020
						CHANNELS 3 Zrotation Yrotation Xrotation
						JOINT Head
						{
							OFFSET 0.104070 1.761360 -0.123970
							CHANNELS 3 Zrotation Yrotation Xrotation
							End Site
							{
								OFFSET 0.000000 0.000000 0.000000
							}
						}
					}
				}
				JOINT LeftShoulder
				{
					OFFSET 0.000000 0.000000 0.000000
					CHANNELS 3 Zrotation Yrotation Xrotation
					JOINT LeftArm
					{
						OFFSET 3.362410 1.200890 -0.311210
						CHANNELS 3 Zrotation Yrotation Xrotation
						JOINT LeftForeArm
						{
							OFFSET 4.983000 -0.000000 -0.000000
							CHANNELS 3 Zrotation Yrotation Xrotation
							JOINT LeftHand
							{
								OFFSET 3.483560 -0.000000 -0.000000
								CHANNELS 3 Zrotation Yrotation Xrotation
								JOINT LeftFingerBase
								{
									OFFSET 0.000000 0.000000 0.000000
									CHANNELS 3 Zrotation Yrotation Xrotation
									JOINT LeftHandIndex1
									{
										OFFSET 0.715260 -0.000000 -0.000000
										CHANNELS 3 Zrotation Yrotation Xrotation
										End Site
										{
											OFFSET 0.000000 0.000000 0.000000
										}
									}
								}
								JOINT LThumb
								{
									OFFSET 0.000000 0.000000 0.000000
									CHANNELS 3 Zrotation Yrotation Xrotation
									End Site
									{
										OFFSET 0.000000 0.000000 0.000000
									}
								}
							}
						}
					}
				}
				JOINT RightShoulder
				{
					OFFSET 0.000000 0.000000 0.000000
					CHANNELS 3 Zrotation Yrotation Xrotation
					JOINT RightArm
					{
						OFFSET -3.136600 1.374050 -0.404650
						CHANNELS 3 Zrotation Yrotation Xrotation
						JOINT RightForeArm
						{
							OFFSET -5.241900 -0.000000 -0.000000
							CHANNELS 3 Zrotation Yrotation Xrotation
							JOINT RightHand
							{
								OFFSET -3.444170 -0.000000 -0.000000
								CHANNELS 3 Zrotation Yrotation Xrotation
								JOINT RightFingerBase
								{
									OFFSET 0.000000 0.000000 0.000000
									CHANNELS 3 Zrotation Yrotation Xrotation
									JOINT RightHandIndex1
									{
										OFFSET -0.622530 -0.000000 -0.000000
										CHANNELS 3 Zrotation Yrotation Xrotation
										End Site
										{
											OFFSET 0.000000 0.000000 0.000000
										}
									}
								}
								JOINT RThumb
								{
									OFFSET 0.000000 0.000000 0.000000
									CHANNELS 3 Zrotation Yrotation Xrotation
									End Site
									{
										OFFSET 0.000000 0.000000 0.000000
									}
								}
							}
						}
					}
				}
			}
		}
	}
}
MOTION
Frames: 5
Frame Time: 0.008333
4.397046 14.034715 -0.663151 -2.795414 9.547719 -5.144738 11.515771 29.009775 -3.858624 -23.067619 -19.515734 -26.377990 12.650725 10.036029 40.517227 -2.038692 1.052314 -20.985607 0.000000 0.000000 0.000000 -17.524548 -16.794778 1.085253 7.019594 1.658070 -2.011677 16.788887 -32.147688 44.864009 9.707531 -9.804173 -30.919027 0.000000 0.000000 0.000000 5.820761 -1.441111 8.819658 1.045844 0.778523 -4.147180 0.361552 -0.942958 -11.950702 -1.832572 1.659669 3.001638 0.000000 0.000000 0.000000 0.000000 0.000000 0.000000 8.963656 -7.528716 -4.619459 -34.005087 -20.674991 -14.786195 -119.199496 -87.407431 180.000000 0.000000 0.000000 0.000000 0.000000 0.000000 0.000000 0.000000 0.000000 0.000000 0.000000 0.000000 0.000000 -7.205567 -1.065852 -12.270264 96.956614 33.549823 50.904169 -119.667604 52.192539 -0.000000 0.000000 0.000000 0.000000 0.000000 0.000000 0.000000 0.000000 0.000000 0.000000 0.000000 0.000000 0.000000 
4.341106 14.016258 -0.686814 -2.806603 9.050469 -5.172249 11.472069 29.072259 -3.765519 -22.950194 -19.657790 -26.528309 13.267048 9.720273 40.715822 -2.022847 0.649328 -21.651817 0.000000 0.000000 0.000000 -17.545159 -16.912992 0.948867 7.333375 1.758844 -2.037785 16.637501 -32.058853 44.989986 9.705748 -9.642648 -31.283418 0.000000 0.000000 0.000000 5.898495 -1.470361 8.847800 1.053741 0.792007 -4.144530 0.397067 -0.901263 -11.985216 -1.838375 1.642028 3.009430 0.000000 0.000000 0.000000 0.000000 0.000000 0.000000 8.997797 -7.449169 -4.630624 -33.850048 -20.197841 -15.421777 -120.156083 -86.560121 -180.000000 0.000000 0.000000 0.000000 0.000000 0.000000 0.000000 0.000000 0.000000 0.000000 0.000000 0.000000 0.000000 -7.196589 -1.037874 -12.239058 97.047119 33.542190 50.892197 -119.720145 52.268323 -0.000000 0.000000 0.000000 0.000000 0.000000 0.000000 0.000000 0.000000 0.000000 0.000000 0.000000 0.000000 0.000000 
4.285434 14.001185 -0.711700 -2.807923 8.547300 -5.202492 11.451761 29.140289 -3.662332 -22.832591 -19.754077 -26.644934 13.781266 9.450903 40.837044 -1.998429 0.263936 -22.307055 0.000000 0.000000 0.000000 -17.565110 -17.035844 0.793323 7.661303 1.866965 -2.074590 16.435279 -31.980619 45.157928 9.710243 -9.518860 -31.616822 0.000000 0.000000 0.000000 5.960110 -1.496190 8.880341 1.060213 0.808339 -4.140167 0.430672 -0.855346 -12.014350 -1.844682 1.623524 3.012069 0.000000 0.000000 0.000000 0.000000 0.000000 0.000000 9.031946 -7.356833 -4.612324 -33.723642 -19.724223 -16.049937 -121.165775 -85.703686 -180.000000 0.000000 0.000000 0.000000 0.000000 0.000000 0.000000 0.000000 0.000000 0.000000 0.000000 0.000000 0.000000 -7.188699 -1.023198 -12.211588 97.138731 33.517223 50.876305 -119.779619 52.354995 -0.000000 0.000000 0.000000 0.000000 0.000000 0.000000 0.000000 0.000000 0.000000 0.000000 0.000000 0.000000 0.000000 
4.230059 13.989844 -0.737935 -2.797933 8.039113 -5.236763 11.458920 29.217980 -3.548509 -22.723292 -19.802329 -26.719915 14.187726 9.226542 40.874224 -1.964232 -0.111321 -22.955344 0.000000 0.000000 0.000000 -17.584762 -17.165304 0.617465 8.005240 1.982617 -2.122643 16.175617 -31.913821 45.371773 9.722507 -9.436904 -31.918031 0.000000 0.000000 0.000000 6.003540 -1.518329 8.918075 1.065125 0.827649 -4.133996 0.461915 -0.805074 -12.037462 -1.851718 1.604046 3.008808 0.000000 0.000000 0.000000 0.000000 0.000000 0.000000 9.066193 -7.250186 -4.560986 -33.629343 -19.256669 -16.667265 -122.227276 -84.839945 -180.000000 0.000000 0.000000 0.000000 0.000000 0.000000 0.000000 0.000000 0.000000 0.000000 0.000000 0.000000 0.000000 -7.182177 -1.024038 -12.188357 97.231298 33.472816 50.856503 -119.847038 52.453183 -0.000000 0.000000 0.000000 0.000000 0.000000 0.000000 0.000000 0.000000 0.000000 0.000000 0.000000 0.000000 0.000000 
4.174684 13.978503 -0.764171 -2.787132 7.529547 -5.270632 11.462998 29.291861 -3.434011 -22.605791 -19.847297 -26.799683 14.594350 9.011143 40.910625 -1.929729 -0.471464 -23.594382 0.000000 0.000000 0.000000 -17.600815 -17.292440 0.441422 8.348052 2.096193 -2.166320 15.918052 -31.843460 45.582049 9.734504 -9.354358 -32.212480 0.000000 0.000000 0.000000 6.046955 -1.539934 8.953180 1.069638 0.847224 -4.126884 0.492895 -0.754582 -12.051876 -1.858453 1.584311 3.003288 0.000000 0.000000 0.000000 0.000000 0.000000 0.000000 9.097801 -7.146104 -4.498102 -33.527339 -18.791557 -17.259999 -123.289315 -84.007148 -180.000000 0.000000 0.000000 0.000000 0.000000 0.000000 0.000000 0.000000 0.000000 0.000000 0.000000 0.000000 0.000000 -7.173266 -1.023647 -12.167228 97.319161 33.434040 50.835352 -119.910991 52.552144 -0.000000 0.000000 0.000000 0.000000 0.000000 0.000000 0.000000 0.000000 0.000000 0.000000 0.000000 0.000000 0.000000 
